<svg xmlns="http://www.w3.org/2000/svg" xmlns:xlink="http://www.w3.org/1999/xlink" width="1270" zoomAndPan="magnify" viewBox="0 0 952.5 272.999983" height="364" preserveAspectRatio="xMidYMid meet" version="1.0"><defs><g/></defs><g fill="#cb4e35" fill-opacity="1"><g transform="translate(112.193207, 189.462503)"><g><path d="M 111.875 -62.929688 C 107.941406 -67.445312 105.175781 -69.628906 103.425781 -70.648438 C 101.679688 -71.667969 99.929688 -72.542969 99.203125 -71.816406 C 98.035156 -70.503906 99.347656 -68.902344 100.511719 -67.882812 C 102.40625 -66.425781 104.15625 -64.53125 105.609375 -61.765625 C 107.214844 -58.996094 107.503906 -55.210938 107.359375 -51.714844 C 107.214844 -48.21875 106.921875 -46.46875 105.902344 -45.15625 C 105.027344 -44.136719 102.84375 -43.554688 101.242188 -43.410156 C 99.785156 -43.117188 98.328125 -42.828125 97.015625 -42.828125 C 95.707031 -42.828125 94.832031 -41.808594 94.6875 -40.933594 C 94.6875 -39.914062 95.558594 -39.039062 97.453125 -38.601562 C 99.203125 -38.3125 104.007812 -37.582031 106.777344 -37.292969 C 109.542969 -37.144531 113.476562 -36.707031 116.390625 -37.4375 C 119.304688 -38.3125 120.324219 -41.078125 119.59375 -46.46875 C 118.867188 -51.714844 115.953125 -58.269531 111.875 -62.929688 Z M 25.636719 -28.113281 C 23.453125 -23.746094 19.664062 -18.792969 17.335938 -15.730469 C 14.859375 -12.527344 11.363281 -8.449219 11.363281 -6.410156 C 11.363281 -3.496094 13.109375 -2.183594 15.148438 -1.894531 C 17.1875 -1.457031 19.375 -4.808594 20.832031 -7.429688 C 22.433594 -10.195312 26.804688 -18.355469 28.84375 -22.433594 C 31.902344 -28.261719 35.398438 -34.960938 38.3125 -41.371094 C 41.226562 -47.78125 44.285156 -56.082031 46.613281 -62.492188 C 46.761719 -63.074219 47.050781 -63.511719 47.195312 -64.09375 C 48.070312 -64.53125 48.945312 -64.96875 49.527344 -65.113281 C 54.042969 -66.863281 59.726562 -69.195312 63.804688 -67.445312 C 67.738281 -65.84375 70.066406 -60.746094 70.214844 -54.335938 C 70.359375 -48.070312 69.484375 -39.914062 67.300781 -32.777344 C 64.96875 -25.492188 60.160156 -20.25 56.8125 -18.355469 C 53.316406 -16.460938 46.613281 -20.101562 44.285156 -20.832031 C 41.515625 -21.851562 39.039062 -21.558594 38.601562 -20.25 C 38.164062 -18.9375 41.078125 -17.480469 43.699219 -15.878906 C 46.03125 -14.421875 49.089844 -12.234375 50.691406 -10.050781 C 52.296875 -8.011719 54.1875 -6.265625 56.375 -6.265625 C 58.707031 -6.265625 62.636719 -9.175781 65.261719 -11.800781 C 68.902344 -15.441406 72.835938 -20.976562 75.3125 -29.863281 C 77.789062 -39.039062 78.953125 -46.761719 77.640625 -54.773438 C 76.332031 -62.929688 73.125 -70.214844 66.132812 -72.398438 C 60.746094 -74 55.644531 -72.542969 53.023438 -71.523438 C 52.296875 -71.234375 50.839844 -70.796875 49.238281 -70.066406 C 50.691406 -74.4375 52.003906 -78.953125 52.296875 -82.59375 C 52.878906 -88.421875 51.714844 -92.355469 50.691406 -94.832031 C 49.820312 -97.015625 45.886719 -98.472656 43.992188 -97.164062 C 42.097656 -95.707031 43.117188 -93.667969 44.285156 -91.773438 C 45.449219 -90.023438 46.324219 -86.089844 46.03125 -82.304688 C 45.742188 -78.660156 45.304688 -73.710938 43.554688 -67.882812 C 41.660156 -67.300781 40.058594 -66.570312 38.75 -66.132812 C 35.398438 -64.675781 30.152344 -62.785156 26.21875 -62.054688 C 22.433594 -61.179688 19.664062 -61.765625 17.773438 -62.054688 C 15.878906 -62.347656 13.691406 -61.617188 12.964844 -59.871094 C 12.527344 -58.558594 13.546875 -56.082031 17.1875 -54.480469 C 20.683594 -53.023438 24.617188 -53.167969 26.804688 -54.1875 C 29.132812 -55.0625 32.777344 -57.101562 35.835938 -58.558594 C 37.144531 -59.289062 38.894531 -60.160156 41.078125 -61.179688 C 38.894531 -55.9375 36.273438 -50.109375 34.085938 -45.449219 C 31.027344 -39.039062 27.96875 -32.339844 25.636719 -28.113281 Z M 25.636719 -28.113281 "/></g></g></g><g fill="#cb4e35" fill-opacity="1"><g transform="translate(257.833685, 189.462503)"><g><path d="M 114.644531 -39.476562 C 113.621094 -39.621094 112.75 -38.019531 112.167969 -36.273438 C 111.582031 -34.667969 109.105469 -26.65625 106.777344 -22.433594 C 104.445312 -18.355469 101.386719 -14.566406 96.289062 -11.652344 C 91.335938 -8.738281 82.886719 -8.011719 77.789062 -12.964844 C 72.542969 -18.0625 71.523438 -24.035156 72.542969 -31.757812 C 73.710938 -40.640625 74.730469 -48.070312 69.628906 -52.441406 C 64.675781 -56.664062 54.773438 -57.101562 48.652344 -53.898438 C 43.847656 -51.421875 39.332031 -48.363281 34.378906 -42.828125 C 35.6875 -45.304688 37 -47.925781 38.3125 -50.109375 C 42.535156 -57.25 49.238281 -67.152344 53.753906 -72.691406 C 58.269531 -78.371094 62.347656 -82.742188 64.09375 -84.34375 C 65.988281 -85.945312 66.570312 -89.441406 64.824219 -91.625 C 63.222656 -93.8125 61.617188 -94.976562 60.160156 -95.996094 C 58.851562 -96.871094 56.664062 -97.597656 55.644531 -96.433594 C 54.917969 -95.558594 55.355469 -93.8125 56.082031 -92.644531 C 56.8125 -91.480469 58.121094 -89.585938 56.082031 -86.527344 C 54.1875 -83.613281 48.652344 -75.75 44.867188 -70.066406 C 41.078125 -64.675781 35.980469 -56.519531 33.066406 -51.714844 C 30.007812 -46.613281 24.179688 -35.253906 21.121094 -27.09375 C 18.0625 -18.9375 15.296875 -11.363281 15.585938 -8.738281 C 15.878906 -6.117188 16.898438 -2.769531 19.519531 -1.019531 C 21.996094 0.582031 24.179688 0.4375 24.617188 -0.4375 C 25.347656 -1.019531 25.785156 -2.621094 25.347656 -7.136719 C 24.765625 -11.945312 25.347656 -19.664062 27.242188 -26.21875 C 27.386719 -26.949219 27.824219 -28.113281 28.113281 -28.988281 C 32.046875 -34.234375 37.292969 -39.476562 40.933594 -42.535156 C 45.15625 -46.324219 50.109375 -48.945312 55.644531 -48.800781 C 61.179688 -48.507812 65.988281 -45.304688 64.96875 -37.292969 C 64.09375 -29.425781 62.347656 -20.394531 68.464844 -12.671875 C 74.4375 -4.953125 81.574219 -3.351562 89.585938 -3.789062 C 97.597656 -4.371094 104.007812 -9.46875 108.234375 -17.1875 C 112.75 -25.054688 114.351562 -31.609375 115.515625 -35.980469 C 115.953125 -37.730469 115.515625 -39.183594 114.644531 -39.476562 Z M 114.644531 -39.476562 "/></g></g></g><g fill="#cb4e35" fill-opacity="1"><g transform="translate(403.474162, 189.462503)"><g/></g></g><g fill="#cb4e35" fill-opacity="1"><g transform="translate(549.11464, 189.462503)"><g><path d="M 30.738281 -42.390625 C 30.445312 -37 29.132812 -28.550781 30.445312 -21.703125 C 31.609375 -15.003906 36.125 -8.738281 41.078125 -5.242188 C 45.886719 -1.746094 53.898438 0.582031 60.597656 -0.144531 C 67.300781 -0.875 75.75 -3.640625 83.324219 -9.324219 C 90.898438 -14.859375 97.164062 -20.539062 100.222656 -23.160156 C 103.132812 -25.785156 105.320312 -28.261719 106.046875 -29.28125 C 106.777344 -30.152344 106.777344 -31.027344 106.195312 -31.609375 C 105.609375 -32.046875 104.445312 -31.757812 103.71875 -30.882812 C 102.988281 -30.300781 99.492188 -26.949219 97.308594 -25.347656 C 94.976562 -23.597656 89.441406 -19.519531 85.800781 -17.335938 C 82.011719 -15.003906 75.601562 -11.652344 72.542969 -10.050781 C 69.339844 -8.449219 64.242188 -7.136719 59.726562 -6.992188 C 55.355469 -6.699219 48.070312 -8.304688 44.285156 -11.945312 C 40.640625 -15.441406 37.4375 -20.25 36.5625 -26.804688 C 35.6875 -33.359375 36.5625 -42.097656 37.144531 -47.050781 C 37.582031 -52.148438 39.476562 -65.699219 40.058594 -69.339844 C 40.789062 -73.125 42.535156 -79.972656 43.265625 -83.761719 C 43.992188 -87.402344 45.011719 -91.191406 42.828125 -93.8125 C 40.789062 -96.433594 38.457031 -97.746094 37.144531 -98.472656 C 35.6875 -99.203125 33.941406 -99.929688 33.066406 -99.054688 C 32.046875 -98.183594 32.191406 -96.433594 32.921875 -95.269531 C 33.503906 -94.101562 35.398438 -90.898438 35.398438 -87.984375 C 35.398438 -85.070312 34.378906 -76.332031 33.941406 -71.523438 C 33.503906 -67.007812 31.171875 -47.78125 30.738281 -42.390625 Z M 30.738281 -42.390625 "/></g></g></g><g fill="#cb4e35" fill-opacity="1"><g transform="translate(694.755118, 189.462503)"><g><path d="M 93.8125 -69.628906 C 87.839844 -70.648438 82.304688 -70.503906 75.3125 -68.171875 C 68.902344 -66.132812 60.890625 -62.347656 55.355469 -59.726562 C 53.898438 -59.140625 52.148438 -58.414062 50.402344 -57.683594 C 48.800781 -61.472656 47.34375 -64.96875 46.46875 -67.882812 C 45.304688 -71.523438 45.59375 -76.039062 47.195312 -77.789062 C 49.238281 -79.828125 51.714844 -80.703125 55.644531 -79.828125 C 58.707031 -79.246094 62.203125 -76.914062 64.09375 -75.3125 C 65.988281 -73.5625 67.882812 -72.105469 69.777344 -70.796875 C 71.667969 -69.484375 74.292969 -69.484375 75.75 -70.214844 C 77.207031 -71.085938 77.351562 -72.980469 77.351562 -74.875 C 77.351562 -76.621094 76.621094 -78.660156 75.457031 -79.828125 C 74.144531 -81.285156 73.125 -82.449219 71.667969 -83.90625 C 70.648438 -85.070312 69.484375 -86.238281 68.609375 -85.945312 C 67.300781 -85.800781 67.300781 -84.050781 67.300781 -82.742188 C 67.445312 -81.429688 67.738281 -79.828125 67.152344 -79.097656 C 66.425781 -78.371094 64.96875 -79.097656 63.804688 -79.683594 C 62.636719 -80.410156 60.453125 -81.574219 56.957031 -82.449219 C 53.753906 -83.324219 50.109375 -83.46875 47.050781 -82.886719 C 43.992188 -82.15625 41.371094 -79.683594 40.496094 -77.058594 C 39.476562 -73.710938 39.769531 -69.628906 40.933594 -66.28125 C 41.953125 -63.511719 43.847656 -59.578125 45.59375 -55.5 C 41.953125 -53.898438 38.601562 -52.148438 36.855469 -51.421875 C 33.503906 -49.964844 30.300781 -49.089844 27.386719 -49.238281 C 24.472656 -49.382812 22.140625 -49.671875 21.121094 -47.78125 C 20.394531 -46.613281 21.703125 -45.011719 23.015625 -43.847656 C 24.472656 -42.679688 26.367188 -41.078125 29.28125 -41.078125 C 32.046875 -40.933594 34.523438 -42.097656 39.039062 -44.429688 C 41.078125 -45.59375 44.574219 -47.488281 48.21875 -49.382812 C 49.964844 -45.304688 51.566406 -40.789062 53.023438 -35.835938 C 55.210938 -28.695312 57.539062 -22.871094 59.289062 -16.316406 C 60.308594 -12.382812 60.597656 -8.59375 60.308594 -4.808594 C 60.015625 -1.019531 61.035156 1.894531 63.804688 2.039062 C 66.570312 2.332031 68.171875 -0.875 68.609375 -5.679688 C 68.902344 -10.488281 67.882812 -15.148438 66.132812 -20.101562 C 64.242188 -25.054688 60.015625 -34.234375 58.269531 -38.019531 C 56.957031 -41.226562 54.480469 -47.195312 52.734375 -51.859375 C 55.5 -53.460938 58.269531 -55.0625 60.160156 -56.082031 C 66.132812 -59.433594 71.667969 -62.785156 79.535156 -64.53125 C 87.257812 -66.132812 95.414062 -64.824219 100.222656 -59.726562 C 104.882812 -54.773438 103.570312 -47.195312 99.347656 -43.847656 C 95.269531 -40.351562 88.566406 -39.183594 82.15625 -41.226562 C 75.601562 -43.117188 71.523438 -45.742188 68.171875 -49.382812 C 67.300781 -50.402344 65.988281 -50.546875 65.40625 -50.402344 C 64.824219 -49.964844 64.824219 -48.800781 65.699219 -47.78125 C 69.339844 -42.828125 74.144531 -39.621094 79.972656 -37.292969 C 85.800781 -34.816406 91.191406 -34.667969 96.726562 -35.6875 C 102.113281 -36.5625 106.339844 -39.332031 108.816406 -45.304688 C 111.292969 -51.421875 110.5625 -55.9375 107.941406 -60.597656 C 104.738281 -65.988281 99.054688 -68.757812 93.8125 -69.628906 Z M 93.8125 -69.628906 "/></g></g></g><path fill="#ff794a" d="M 531.136719 157.730469 C 533.246094 154.84375 533.078125 148.71875 530.203125 146.527344 C 529.390625 145.910156 529.585938 144.808594 530.167969 144.316406 C 530.179688 144.308594 530.179688 144.308594 530.1875 144.300781 C 531.515625 143.015625 531.855469 141.101562 530.863281 139.542969 C 530.804688 139.917969 530.71875 140.285156 530.589844 140.617188 C 530.230469 141.496094 529.742188 142.210938 529.039062 142.640625 C 528.867188 142.738281 528.6875 142.820312 528.5 142.859375 C 528.355469 142.894531 528.035156 142.980469 527.742188 142.773438 C 527.511719 142.578125 527.511719 142.46875 527.457031 142.355469 C 527.402344 142.246094 527.367188 142.144531 527.34375 142.050781 C 527.238281 141.671875 527.273438 141.453125 527.367188 141.417969 C 527.464844 141.386719 527.609375 141.546875 527.839844 141.785156 C 527.894531 141.84375 527.960938 141.914062 528.023438 141.980469 C 528.089844 142.050781 528.199219 142.152344 528.179688 142.101562 C 528.105469 142.039062 528.078125 142.058594 528.191406 141.996094 C 528.285156 141.949219 528.371094 141.890625 528.445312 141.800781 C 528.792969 141.496094 529.117188 140.882812 529.328125 140.191406 C 529.527344 139.503906 529.585938 138.683594 529.433594 137.875 C 529.355469 137.464844 529.230469 137.082031 529.0625 136.730469 C 528.890625 136.375 528.695312 136.050781 528.507812 135.871094 C 528.285156 135.664062 528.199219 135.640625 528.078125 135.664062 C 527.925781 135.691406 527.601562 135.941406 527.390625 136.097656 C 526.503906 136.757812 526.679688 137.492188 526.519531 137.574219 C 526.441406 137.628906 526.210938 137.480469 526.113281 137.050781 C 526.015625 136.628906 526.183594 135.929688 526.664062 135.386719 C 526.921875 135.113281 527.085938 134.859375 527.609375 134.566406 C 527.871094 134.429688 528.242188 134.386719 528.566406 134.457031 C 528.882812 134.53125 529.148438 134.6875 529.363281 134.859375 C 529.585938 135.035156 529.765625 135.234375 529.929688 135.453125 C 530.074219 135.65625 530.210938 135.871094 530.332031 136.097656 C 530.488281 136.390625 530.597656 136.707031 530.703125 137.027344 C 530.769531 136.96875 530.855469 136.917969 530.941406 136.871094 C 531.660156 136.496094 531.320312 134.191406 531.207031 133.59375 C 530.992188 132.460938 530.429688 131.488281 529.230469 131.25 C 528.257812 131.054688 528.121094 130.101562 528.5 129.425781 C 528.429688 129.066406 528.5 128.675781 528.808594 128.324219 C 531.796875 124.945312 527.230469 123.929688 524.25 122.636719 C 524.378906 122.898438 524.484375 123.164062 524.574219 123.433594 C 524.734375 123.996094 524.863281 124.558594 524.753906 125.226562 C 524.625 125.898438 524.25 126.359375 523.886719 126.703125 C 523.519531 127.050781 523.117188 127.289062 522.722656 127.433594 C 521.941406 127.730469 521.257812 127.695312 520.832031 127.585938 C 520.394531 127.46875 520.199219 127.296875 520.230469 127.210938 C 520.265625 126.996094 521.195312 127.167969 522.289062 126.515625 C 522.550781 126.359375 522.808594 126.140625 523.023438 125.878906 C 523.246094 125.609375 523.425781 125.292969 523.433594 125.023438 C 523.46875 124.738281 523.375 124.296875 523.226562 123.878906 C 523.082031 123.460938 522.859375 123.050781 522.578125 122.667969 C 521.480469 121.128906 519.441406 120.4375 518.574219 120.972656 C 518.171875 121.1875 517.980469 121.707031 518.003906 121.992188 C 517.996094 122.3125 518.121094 122.507812 518.058594 122.589844 C 518.019531 122.660156 517.691406 122.617188 517.453125 122.148438 C 517.246094 121.699219 517.210938 120.84375 517.972656 120.144531 C 518.71875 119.515625 519.910156 119.453125 520.929688 119.785156 C 521.273438 119.898438 521.609375 120.054688 521.933594 120.242188 C 521.902344 119.695312 521.941406 119.125 521.804688 118.628906 C 521.324219 116.898438 519.902344 115.320312 518.394531 114.410156 C 516.0625 113.003906 513.273438 112.769531 510.621094 112.746094 C 509.757812 112.730469 509.355469 112.039062 509.386719 111.375 C 508.519531 108.066406 504.640625 107.230469 501.667969 108.375 C 501.898438 108.492188 502.121094 108.628906 502.316406 108.792969 C 503.148438 109.445312 503.652344 110.464844 503.480469 111.375 C 503.414062 111.824219 503.140625 112.199219 502.882812 112.394531 C 502.609375 112.613281 502.363281 112.703125 502.164062 112.761719 C 501.769531 112.867188 501.546875 112.851562 501.503906 112.753906 C 501.460938 112.671875 501.632812 112.5 501.90625 112.269531 C 502.183594 112.03125 502.507812 111.691406 502.46875 111.261719 C 502.453125 110.820312 502.121094 110.25 501.519531 109.851562 C 500.929688 109.445312 500.097656 109.21875 499.234375 109.289062 C 498.359375 109.347656 497.519531 109.664062 496.796875 110.046875 C 496.628906 110.136719 496.410156 110.257812 496.300781 110.324219 C 496.207031 110.40625 496.257812 110.324219 496.230469 110.34375 C 496.191406 110.40625 496.3125 110.691406 496.480469 110.820312 C 496.867188 111.171875 497.347656 111.28125 497.679688 111.332031 C 498.015625 111.382812 498.238281 111.375 498.273438 111.46875 C 498.316406 111.554688 498.152344 111.75 497.738281 111.886719 C 497.339844 112.011719 496.644531 112.082031 495.90625 111.65625 C 495.527344 111.425781 495.105469 111.085938 495.03125 110.34375 C 494.992188 109.960938 495.273438 109.5 495.519531 109.332031 C 495.753906 109.144531 495.90625 109.046875 496.125 108.90625 C 496.796875 108.476562 497.640625 108.09375 498.589844 107.929688 C 496.636719 101.980469 489.023438 105.371094 486 108.339844 C 485.699219 108.628906 485.367188 108.742188 485.050781 108.707031 C 484.730469 108.835938 484.371094 108.851562 483.984375 108.679688 C 482.476562 108 478.972656 108.253906 478.628906 110.367188 C 478.945312 110.300781 479.28125 110.25 479.65625 110.25 C 480.25 110.242188 480.980469 110.4375 481.464844 110.9375 C 481.964844 111.441406 482.128906 112.082031 482.128906 112.628906 C 482.109375 113.777344 481.511719 114.511719 481.082031 115.015625 C 480.636719 115.523438 480.175781 115.898438 479.804688 116.0625 C 479.4375 116.234375 479.1875 116.214844 479.152344 116.132812 C 479.089844 115.945312 479.667969 115.515625 480.25 114.417969 C 480.550781 113.894531 480.859375 113.257812 480.800781 112.671875 C 480.710938 112.03125 480.421875 111.691406 479.648438 111.691406 C 478.894531 111.707031 477.886719 111.964844 477.21875 112.183594 C 476.53125 112.433594 476.042969 112.832031 475.828125 113.257812 C 475.597656 113.683594 475.589844 114.195312 475.550781 114.546875 C 475.527344 114.902344 475.476562 115.117188 475.382812 115.140625 C 475.277344 115.15625 475.144531 114.988281 475 114.628906 C 474.871094 114.285156 474.660156 113.722656 474.859375 112.910156 C 475.074219 112.117188 475.785156 111.382812 476.667969 110.984375 C 476.53125 110.871094 476.410156 110.742188 476.3125 110.59375 C 473.523438 109.46875 470.867188 112.238281 470.246094 114.835938 C 470.09375 115.476562 469.613281 115.746094 469.109375 115.746094 C 468.996094 115.773438 468.867188 115.800781 468.730469 115.792969 C 467.007812 115.710938 465.261719 115.980469 464.316406 117.5625 C 463.496094 118.953125 463.070312 120.941406 463.050781 122.539062 C 463.222656 122.472656 463.394531 122.402344 463.554688 122.34375 C 464.386719 122.042969 465.167969 121.984375 465.683594 122.105469 C 466.203125 122.222656 466.410156 122.457031 466.375 122.53125 C 466.339844 122.636719 466.074219 122.609375 465.652344 122.667969 C 465.226562 122.726562 464.652344 122.90625 463.960938 123.28125 C 463.273438 123.65625 462.390625 124.144531 461.917969 124.851562 C 461.675781 125.203125 461.585938 125.585938 461.570312 126.117188 C 461.558594 126.375 461.570312 126.671875 461.578125 126.972656 C 461.59375 127.253906 461.625 127.398438 461.683594 127.46875 C 461.773438 127.648438 462.277344 127.816406 462.785156 127.816406 C 463.328125 127.84375 463.878906 127.808594 464.386719 127.746094 C 465.40625 127.613281 466.332031 127.378906 466.964844 127.039062 C 467.609375 126.703125 467.976562 126.230469 468.171875 125.863281 C 468.371094 125.496094 468.421875 125.242188 468.527344 125.234375 C 468.609375 125.226562 468.773438 125.488281 468.714844 126.027344 C 468.65625 126.546875 468.300781 127.3125 467.53125 127.882812 C 466.761719 128.464844 465.742188 128.820312 464.601562 129.050781 C 464.019531 129.164062 463.410156 129.230469 462.753906 129.230469 C 462.40625 129.222656 462.039062 129.195312 461.652344 129.074219 C 461.269531 128.96875 460.816406 128.738281 460.503906 128.300781 C 460.179688 127.851562 460.144531 127.332031 460.144531 127.015625 C 460.136719 126.691406 460.136719 126.382812 460.152344 126.042969 C 460.179688 125.390625 460.402344 124.609375 460.839844 124.074219 C 460.863281 124.039062 460.898438 124.007812 460.921875 123.972656 C 456.628906 123.460938 457.359375 133.824219 457.769531 136.007812 C 457.777344 136.050781 457.769531 136.089844 457.777344 136.136719 C 458.234375 136.023438 458.695312 136.058594 459.074219 136.179688 C 460.042969 136.464844 460.625 137.191406 460.898438 137.777344 C 461.179688 138.378906 461.25 138.871094 461.269531 139.21875 C 461.277344 139.5625 461.222656 139.757812 461.132812 139.78125 C 460.914062 139.851562 460.640625 139.121094 460.023438 138.308594 C 459.714844 137.90625 459.277344 137.558594 458.730469 137.457031 C 458.199219 137.351562 457.769531 137.539062 457.445312 138.113281 C 457.144531 138.640625 457.101562 139.441406 457.121094 140.132812 C 457.136719 140.816406 457.265625 141.386719 457.488281 141.808594 C 457.925781 142.679688 458.613281 142.910156 458.574219 143.113281 C 458.566406 143.210938 458.363281 143.292969 457.984375 143.226562 C 457.617188 143.167969 457.085938 142.910156 456.648438 142.382812 C 456.195312 141.859375 455.894531 141.078125 455.792969 140.242188 C 455.738281 139.816406 455.722656 139.398438 455.757812 138.921875 C 455.785156 138.589844 455.84375 138.230469 455.972656 137.882812 C 453.871094 137.816406 452.863281 141.589844 452.835938 142.996094 C 452.808594 144.777344 453.007812 146.703125 454.109375 148.140625 C 454.394531 148.515625 454.410156 148.882812 454.28125 149.191406 C 454.496094 149.710938 454.394531 150.34375 453.734375 150.675781 C 450.691406 152.214844 446.921875 160.632812 451.632812 162.300781 C 451.625 162.242188 451.625 162.179688 451.625 162.121094 C 451.617188 161.585938 451.640625 160.988281 451.832031 160.363281 C 452.652344 157.714844 456.109375 157 457.273438 158.765625 C 457.761719 159.515625 457.738281 160.1875 457.71875 160.589844 C 457.683594 161.007812 457.609375 161.21875 457.503906 161.234375 C 457.414062 161.242188 457.300781 161.03125 457.164062 160.664062 C 457.027344 160.304688 456.863281 159.777344 456.476562 159.394531 C 456.273438 159.207031 456.078125 159.097656 455.792969 159.0625 C 455.503906 159.027344 455.128906 159.0625 454.796875 159.179688 C 454.101562 159.410156 453.4375 160 453.210938 160.785156 C 453.089844 161.183594 453.050781 161.644531 453.042969 162.121094 C 453.03125 162.609375 453.03125 163.066406 453.082031 163.453125 C 453.1875 164.210938 453.566406 164.835938 453.988281 165.277344 C 454.855469 166.171875 455.757812 166.308594 455.730469 166.519531 C 455.730469 166.613281 455.503906 166.71875 455.0625 166.699219 C 454.625 166.675781 453.980469 166.511719 453.324219 166.050781 C 452.929688 165.773438 452.539062 165.34375 452.226562 164.8125 C 451.0625 166.628906 450.132812 172.195312 453 172.9375 C 453.648438 173.109375 453.914062 173.613281 453.90625 174.132812 C 454.035156 174.371094 454.070312 174.667969 453.957031 175.019531 C 453.460938 176.511719 453.171875 178.15625 454.101562 179.542969 C 454.839844 180.644531 456.136719 181.058594 457.359375 181.425781 C 457.367188 181.375 457.367188 181.316406 457.375 181.265625 C 457.421875 180.953125 457.480469 180.644531 457.566406 180.335938 C 457.738281 179.722656 458.019531 179.125 458.457031 178.664062 C 458.875 178.207031 459.488281 177.921875 459.992188 177.863281 C 461.042969 177.71875 461.824219 178.164062 462.203125 178.539062 C 462.597656 178.9375 462.632812 179.253906 462.550781 179.296875 C 462.46875 179.355469 462.261719 179.167969 461.875 178.988281 C 461.496094 178.820312 460.863281 178.65625 460.203125 178.859375 C 459.546875 179.039062 459.058594 179.664062 458.859375 180.652344 C 458.765625 181.109375 458.6875 181.769531 458.730469 182.175781 C 458.765625 182.398438 458.800781 182.484375 458.9375 182.636719 C 459.066406 182.792969 459.320312 183.003906 459.5625 183.210938 C 460.050781 183.617188 460.539062 183.992188 461.027344 184.34375 C 461.523438 184.691406 461.976562 185.015625 462.40625 185.203125 C 463.289062 185.605469 463.75 185.320312 464.089844 184.613281 C 464.664062 183.199219 464.445312 182.074219 464.671875 182.050781 C 464.761719 182.023438 464.933594 182.265625 465.070312 182.753906 C 465.191406 183.25 465.296875 183.992188 465.054688 184.953125 C 464.917969 185.417969 464.652344 186.019531 463.992188 186.386719 C 463.335938 186.761719 462.519531 186.671875 461.910156 186.429688 C 461.269531 186.191406 460.746094 185.84375 460.210938 185.5 C 459.714844 185.160156 459.210938 184.785156 458.71875 184.375 C 458.824219 185.84375 459.3125 187.1875 460.179688 188.449219 C 460.1875 188.457031 460.195312 188.457031 460.203125 188.464844 C 464.710938 193.019531 472.972656 191.757812 478.320312 189.507812 C 478.578125 189.054688 479.066406 188.773438 479.707031 188.980469 C 483.617188 190.214844 486.90625 187.777344 490.140625 185.90625 C 492.546875 184.523438 495.015625 183.257812 496.875 181.15625 C 496.335938 181.128906 495.804688 181.066406 495.300781 180.953125 C 495 180.882812 494.691406 180.773438 494.398438 180.601562 C 494.109375 180.429688 493.808594 180.15625 493.652344 179.796875 C 493.484375 179.4375 493.5 179.046875 493.566406 178.777344 C 493.636719 178.484375 493.738281 178.265625 493.839844 178.070312 C 494.28125 177.261719 494.855469 176.78125 495.28125 176.550781 C 495.710938 176.316406 495.996094 176.285156 496.035156 176.371094 C 496.164062 176.550781 495.257812 177.125 494.785156 178.46875 C 494.539062 179.273438 494.621094 179.4375 495.582031 179.65625 C 496.53125 179.796875 497.648438 179.804688 498.761719 179.574219 C 499.875 179.363281 500.894531 178.949219 501.753906 178.445312 C 502.574219 177.941406 503.398438 177.34375 503.578125 176.878906 C 503.796875 176.355469 503.617188 175.761719 503.421875 175.445312 C 503.226562 175.101562 503.019531 174.949219 503.0625 174.847656 C 503.089844 174.769531 503.40625 174.738281 503.84375 175.0625 C 504.234375 175.378906 504.777344 176.105469 504.5625 177.171875 C 504.433594 177.710938 504.074219 178.164062 503.722656 178.519531 C 503.351562 178.878906 502.945312 179.242188 502.46875 179.558594 C 501.976562 179.894531 501.425781 180.203125 500.816406 180.449219 C 501.585938 180.480469 502.363281 180.464844 503.132812 180.34375 C 505.101562 180.039062 506.5 178.929688 507.9375 177.644531 C 508.121094 177.480469 508.308594 177.386719 508.503906 177.335938 C 508.601562 177.285156 508.710938 177.234375 508.832031 177.207031 C 513.5 176.015625 517.589844 173.722656 521.648438 171.207031 C 525.652344 168.738281 527.703125 166.128906 529.109375 162.164062 C 528.890625 162.359375 528.664062 162.546875 528.40625 162.703125 C 527.917969 163 527.351562 163.195312 526.761719 163.171875 C 526.167969 163.152344 525.585938 162.789062 525.34375 162.386719 C 524.816406 161.558594 524.976562 160.828125 525.0625 160.433594 C 525.171875 160.019531 525.300781 159.8125 525.398438 159.824219 C 525.496094 159.832031 525.558594 160.070312 525.625 160.460938 C 525.6875 160.84375 525.78125 161.398438 526.152344 161.757812 C 526.332031 161.925781 526.511719 161.992188 526.777344 161.976562 C 527.042969 161.953125 527.367188 161.824219 527.675781 161.59375 C 528.277344 161.167969 528.890625 160.296875 529.355469 159.445312 C 529.808594 158.578125 529.855469 157.800781 529.570312 157.015625 C 529.441406 156.632812 529.253906 156.273438 529.054688 155.945312 C 528.839844 155.601562 528.636719 155.304688 528.453125 155.140625 C 528.128906 154.816406 527.574219 154.863281 527.1875 154.894531 C 526.800781 154.9375 526.550781 154.945312 526.519531 154.851562 C 526.476562 154.765625 526.640625 154.578125 527.019531 154.367188 C 527.207031 154.253906 527.457031 154.136719 527.804688 154.074219 C 528.140625 154.015625 528.617188 154.050781 529.039062 154.308594 C 529.457031 154.5625 529.742188 154.902344 530.03125 155.253906 C 530.316406 155.613281 530.597656 156.035156 530.8125 156.539062 C 530.964844 156.898438 531.085938 157.296875 531.136719 157.730469 Z M 534.105469 147.757812 C 535.226562 145.679688 536.09375 143.335938 534.683594 141.164062 C 534.515625 140.890625 534.464844 140.617188 534.488281 140.371094 C 534.40625 140.148438 534.398438 139.886719 534.480469 139.59375 C 535.589844 135.957031 535.421875 132.351562 534.078125 128.8125 C 533.605469 128.464844 533.339844 127.84375 533.710938 127.183594 C 535.347656 124.289062 534.035156 119.921875 531.839844 117.417969 C 531.222656 117.382812 530.597656 116.972656 530.519531 116.199219 C 530.238281 113.105469 528.15625 110.335938 525.242188 109.191406 C 524.839844 109.039062 524.597656 108.75 524.46875 108.433594 C 524.332031 108.296875 524.214844 108.117188 524.144531 107.898438 C 523.253906 105.175781 521.453125 102.339844 518.265625 102.25 C 517.964844 102.234375 517.71875 102.144531 517.527344 102 C 517.257812 101.972656 516.988281 101.851562 516.757812 101.566406 C 515.105469 99.511719 512.335938 96.476562 509.371094 97.046875 C 508.777344 97.15625 508.316406 96.902344 508.042969 96.527344 C 507.894531 96.425781 507.757812 96.289062 507.636719 96.101562 C 506.113281 93.5625 502.402344 90.273438 499.300781 90.238281 C 498.769531 90.230469 498.410156 89.964844 498.222656 89.597656 C 498.09375 89.480469 497.980469 89.328125 497.90625 89.140625 C 496.910156 86.777344 493.054688 84.503906 490.601562 85.625 C 489.898438 85.953125 489.238281 85.625 488.898438 85.132812 C 488.769531 85.046875 488.648438 84.941406 488.535156 84.796875 C 486.09375 81.492188 480.628906 79.921875 476.90625 82.035156 C 476.289062 82.386719 475.699219 82.175781 475.339844 81.765625 C 475.253906 81.742188 475.160156 81.714844 475.074219 81.671875 C 470.4375 79.625 465.003906 80.910156 461.003906 83.699219 C 460.429688 84.101562 459.878906 83.941406 459.527344 83.558594 C 456.785156 83.460938 453.71875 83.683594 452.0625 86.09375 C 452.199219 86.132812 452.328125 86.164062 452.457031 86.214844 C 452.921875 86.394531 453.273438 86.65625 453.519531 86.90625 C 454 87.421875 454.085938 87.859375 453.941406 87.976562 C 453.785156 88.113281 453.429688 87.933594 452.921875 87.730469 C 452.417969 87.527344 451.769531 87.347656 451.144531 87.511719 C 450.835938 87.585938 450.605469 87.714844 450.425781 87.902344 C 450.238281 88.082031 450.101562 88.308594 450.003906 88.53125 C 449.824219 88.96875 449.824219 89.34375 449.640625 89.425781 C 449.484375 89.523438 449.054688 89.207031 448.996094 88.414062 C 448.988281 88.203125 449.015625 87.953125 449.089844 87.6875 C 446.15625 87.296875 443.296875 88.730469 441.78125 91.25 C 441.703125 91.386719 441.601562 91.488281 441.496094 91.582031 C 441.367188 92.089844 440.972656 92.511719 440.304688 92.546875 C 438.660156 92.617188 437.40625 93.6875 436.492188 94.976562 C 435.753906 96 434.605469 97.582031 434.753906 98.871094 C 434.824219 99.511719 434.476562 99.886719 434.023438 100.03125 C 433.871094 100.210938 433.65625 100.34375 433.371094 100.414062 C 429.007812 101.4375 427.066406 106.421875 426.035156 110.277344 C 425.921875 110.683594 425.683594 110.9375 425.394531 111.074219 C 425.332031 111.144531 425.273438 111.203125 425.207031 111.261719 C 422.710938 113.371094 421.289062 116.214844 421.222656 119.472656 C 421.214844 119.660156 421.175781 119.820312 421.117188 119.957031 C 421.167969 120.453125 420.964844 121 420.5 121.210938 C 419.894531 121.488281 419.773438 122.027344 420.125 122.53125 C 420.527344 123.101562 420.226562 123.957031 419.667969 124.28125 C 419.644531 124.289062 419.625 124.296875 419.601562 124.304688 C 419.574219 124.46875 419.515625 124.625 419.402344 124.796875 C 418.632812 125.984375 418.4375 127.261719 418.785156 128.585938 C 419.300781 128.917969 419.585938 129.546875 419.109375 130.183594 C 418.160156 131.488281 417.878906 132.945312 418.359375 134.5 C 418.425781 134.710938 418.425781 134.90625 418.402344 135.09375 C 418.476562 135.375 418.453125 135.691406 418.273438 136.023438 C 417.472656 137.449219 417.238281 139.015625 417.601562 140.609375 C 417.683594 140.96875 417.621094 141.28125 417.464844 141.53125 C 417.601562 141.777344 417.675781 142.058594 417.621094 142.390625 C 417.390625 143.953125 416.660156 148.042969 418.402344 148.867188 C 419.078125 149.191406 419.183594 149.8125 418.957031 150.332031 C 418.65625 152.777344 419.910156 154.953125 422.195312 155.9375 C 422.394531 155.808594 422.601562 155.726562 422.777344 155.71875 C 422.789062 155.441406 422.839844 155.15625 422.964844 154.929688 C 423.132812 154.621094 423.351562 154.390625 423.578125 154.230469 C 424.042969 153.894531 424.519531 153.804688 424.871094 153.785156 C 425.589844 153.761719 425.960938 153.949219 425.984375 154.136719 C 426.019531 154.339844 425.605469 154.527344 425.109375 154.773438 C 424.609375 154.996094 424.125 155.457031 424.203125 155.839844 C 424.230469 156.0625 424.375 156.34375 424.554688 156.539062 C 424.734375 156.734375 424.992188 156.90625 425.230469 157.03125 C 425.71875 157.296875 426.113281 157.476562 426.097656 157.683594 C 426.082031 157.871094 425.683594 158.066406 424.964844 158.015625 C 424.609375 157.980469 424.148438 157.878906 423.695312 157.554688 C 423.484375 157.390625 423.28125 157.1875 423.113281 156.941406 C 423.0625 157.007812 423.019531 157.070312 422.957031 157.128906 C 423.003906 157.257812 423.046875 157.390625 423.054688 157.542969 C 423.121094 159.148438 424.148438 160.65625 425.667969 161.234375 C 426.011719 161.371094 426.234375 161.601562 426.367188 161.867188 C 426.636719 162.074219 426.8125 162.375 426.835938 162.804688 C 426.9375 165.503906 428.890625 167.746094 431.511719 168.363281 C 432.078125 168.496094 432.351562 168.878906 432.410156 169.316406 C 432.472656 169.398438 432.523438 169.496094 432.554688 169.605469 C 433.277344 171.6875 434.890625 173.261719 436.921875 174.027344 C 436.878906 173.722656 436.871094 173.425781 436.921875 173.148438 C 437.023438 172.511719 437.304688 172.015625 437.585938 171.667969 C 438.179688 170.980469 438.738281 170.832031 438.847656 170.980469 C 438.988281 171.132812 438.703125 171.550781 438.460938 172.195312 C 438.226562 172.835938 438.085938 173.714844 438.574219 174.429688 C 438.808594 174.785156 439.117188 175.035156 439.433594 175.128906 C 439.757812 175.230469 440.136719 175.214844 440.476562 175.160156 C 441.164062 175.042969 441.667969 174.882812 441.773438 175.0625 C 441.871094 175.214844 441.609375 175.671875 440.816406 176.113281 C 440.492188 176.292969 440.03125 176.449219 439.480469 176.441406 C 440.878906 178.808594 443.519531 180.25 446.304688 180.226562 C 446.609375 180.226562 446.867188 180.320312 447.054688 180.457031 C 447.539062 180.5 448 180.765625 448.195312 181.335938 C 448.765625 182.953125 450.289062 184.222656 452.019531 184.417969 C 452.277344 184.453125 452.484375 184.546875 452.664062 184.675781 C 452.765625 184.71875 452.871094 184.765625 452.96875 184.855469 C 453.882812 185.5625 454.5625 186.515625 455.542969 187.136719 C 455.972656 187.421875 456.425781 187.617188 456.898438 187.765625 C 456.375 186.492188 456.109375 185.109375 456.125 183.714844 C 454.417969 183.144531 452.773438 182.355469 451.816406 180.757812 C 450.75 178.972656 450.761719 176.917969 451.28125 174.992188 C 447.878906 173.148438 447.984375 167.386719 449.648438 164.152344 C 444.660156 161.046875 447.203125 152.082031 451.597656 148.980469 C 450.109375 146.601562 449.835938 142.808594 450.660156 140.277344 C 451.308594 138.28125 452.894531 135.804688 455.089844 135.367188 C 454.496094 130.515625 454.832031 121.542969 460.539062 121.421875 C 460.71875 119.386719 461.359375 117.171875 462.550781 115.613281 C 463.890625 113.863281 465.945312 113.25 468.054688 113.226562 C 469.382812 109.585938 473.144531 106.910156 476.90625 108.101562 C 477.679688 107.164062 478.863281 106.480469 479.925781 106.121094 C 481.472656 105.597656 483.050781 105.664062 484.550781 106.183594 C 488.964844 102.1875 497.5 99.808594 500.578125 106.054688 C 504.785156 104.351562 510.253906 105.714844 511.71875 110.21875 C 514.910156 110.34375 518.148438 110.929688 520.726562 112.917969 C 521.875 113.796875 522.832031 114.886719 523.527344 116.15625 C 524.152344 117.316406 524.085938 118.898438 524.960938 119.820312 C 526 120.902344 528.15625 121.039062 529.457031 121.992188 C 530.398438 122.6875 531.15625 123.546875 531.601562 124.625 C 532.292969 126.28125 532.117188 127.894531 531.238281 129.300781 C 532.683594 130.132812 533.523438 131.730469 533.769531 133.425781 C 533.992188 134.992188 534.164062 137.097656 533.109375 138.378906 C 534.386719 140.652344 534.269531 143.328125 532.617188 145.410156 C 533.214844 146.097656 533.710938 146.890625 534.105469 147.757812 Z M 537.015625 140.066406 C 539.007812 143.355469 537.539062 146.949219 535.773438 150.019531 L 535.773438 150.03125 C 536.152344 154.390625 535.628906 158.039062 532.171875 160.988281 C 530.90625 165.503906 529.347656 169.121094 525.34375 171.890625 C 520.53125 175.230469 515.234375 178.214844 509.515625 179.671875 C 509.507812 179.671875 509.507812 179.671875 509.5 179.671875 C 508.066406 180.941406 506.566406 182.117188 504.683594 182.636719 C 502.761719 183.175781 500.757812 183.039062 498.804688 182.84375 C 498.796875 182.851562 498.789062 182.859375 498.777344 182.875 C 496.285156 185.757812 492.640625 187.460938 489.367188 189.3125 C 486.265625 191.066406 483.277344 192.457031 479.777344 191.644531 C 479.769531 191.644531 479.761719 191.652344 479.753906 191.652344 C 473.453125 194.355469 464.316406 195.691406 458.808594 190.648438 C 457.332031 190.617188 455.894531 190.28125 454.609375 189.558594 C 453.339844 188.859375 452.464844 187.765625 451.386719 186.867188 C 449.023438 186.40625 447.078125 184.9375 446.050781 182.773438 C 441.945312 182.707031 438.4375 180.300781 436.734375 176.644531 C 433.722656 175.777344 431.367188 173.5625 430.238281 170.664062 C 426.988281 169.648438 424.667969 166.75 424.308594 163.394531 C 422.1875 162.316406 420.777344 160.339844 420.527344 157.960938 C 417.820312 156.617188 416.105469 153.609375 416.363281 150.601562 C 414.003906 148.679688 414.75 144.316406 415.140625 141.710938 C 415.152344 141.640625 415.179688 141.574219 415.195312 141.507812 C 415.171875 141.4375 415.140625 141.367188 415.117188 141.289062 C 414.628906 139.160156 414.886719 137.050781 415.863281 135.113281 C 415.316406 133.277344 415.511719 131.3125 416.421875 129.652344 L 416.414062 129.652344 C 415.699219 127.59375 415.992188 125.328125 417.183594 123.503906 C 417.292969 123.339844 417.421875 123.222656 417.5625 123.128906 C 417.089844 121.808594 417.546875 120.195312 418.65625 119.34375 C 418.777344 115.507812 420.429688 111.953125 423.386719 109.460938 C 423.476562 109.386719 423.558594 109.332031 423.644531 109.289062 C 424.894531 104.761719 427.347656 99.535156 432.183594 98.09375 C 432.359375 96.253906 433.730469 94.3125 434.792969 92.972656 C 436.019531 91.429688 437.609375 90.371094 439.507812 90.066406 C 439.523438 90.035156 439.542969 89.996094 439.5625 89.957031 C 441.675781 86.445312 445.582031 84.664062 449.605469 85.191406 C 449.628906 85.148438 449.648438 85.105469 449.671875 85.066406 C 451.882812 81.414062 456.09375 80.835938 460.03125 81.015625 C 460.144531 81.023438 460.25 81.039062 460.347656 81.066406 C 465.078125 78.058594 471.113281 77.164062 476.351562 79.453125 C 481.109375 77.273438 487.148438 79.132812 490.390625 83.054688 C 494.058594 82.105469 498.238281 84.429688 500.027344 87.730469 C 503.78125 88.148438 507.667969 91.398438 509.644531 94.476562 C 513.265625 94.296875 516.351562 97.019531 518.53125 99.707031 C 522.695312 99.96875 525.277344 103.300781 526.542969 106.992188 C 529.855469 108.5 532.148438 111.359375 532.886719 114.863281 C 532.945312 114.902344 533.015625 114.945312 533.078125 114.996094 C 536.269531 117.953125 538.035156 123.511719 536.332031 127.636719 C 536.382812 127.722656 536.433594 127.808594 536.46875 127.910156 C 538.035156 131.828125 538.199219 136.015625 537.015625 140.066406 " fill-opacity="1" fill-rule="nonzero"/><path fill="#ff794a" d="M 521.796875 108.882812 C 522.085938 109.320312 522.078125 109.671875 521.925781 109.773438 C 521.574219 109.976562 520.835938 109.421875 519.816406 109.199219 C 518.804688 108.929688 517.898438 109.070312 517.679688 108.734375 C 517.589844 108.570312 517.753906 108.253906 518.207031 108.007812 C 518.652344 107.75 519.398438 107.617188 520.160156 107.804688 C 520.929688 107.992188 521.519531 108.453125 521.796875 108.882812 " fill-opacity="1" fill-rule="nonzero"/><path fill="#ff794a" d="M 474.34375 173.660156 C 474.945312 173.441406 475.542969 173.226562 476.144531 173.007812 C 472.277344 172.359375 468.808594 170.21875 465.003906 168.917969 C 465.226562 170.371094 465.628906 171.769531 466.398438 173 C 468.65625 176.527344 471.070312 174.839844 474.34375 173.660156 Z M 484.371094 169.648438 C 484.859375 169.417969 485.351562 169.171875 485.835938 168.925781 C 480.03125 167.238281 474.046875 164.824219 468.875 161.832031 C 467.273438 160.902344 465.605469 159.359375 464.550781 157.570312 C 464.601562 159.34375 464.652344 161.113281 464.710938 162.890625 C 464.753906 164.363281 464.730469 165.949219 464.851562 167.515625 C 469.570312 169.035156 473.949219 172.300781 479.066406 171.90625 C 480.859375 171.214844 482.640625 170.484375 484.371094 169.648438 Z M 494.3125 121.210938 C 494.765625 120.664062 495.300781 119.832031 494.835938 119.5 C 494.796875 119.464844 494.765625 119.429688 494.734375 119.386719 C 494.683594 119.351562 494.628906 119.320312 494.578125 119.277344 C 494.027344 118.789062 493.484375 118.304688 492.699219 118.472656 C 492.285156 118.570312 491.9375 118.847656 491.742188 119.214844 C 492.308594 119.453125 492.835938 119.777344 493.320312 120.1875 C 493.6875 120.496094 494.011719 120.84375 494.3125 121.210938 Z M 496.832031 125.0625 C 497.664062 124.519531 498.402344 123.71875 497.859375 122.660156 C 497.492188 121.925781 497.023438 121.886719 496.222656 122.042969 C 495.890625 122.113281 495.550781 122.261719 495.210938 122.421875 C 495.777344 123.265625 496.292969 124.175781 496.832031 125.0625 Z M 501.125 133.800781 C 500.417969 131.789062 497.054688 129.785156 495.761719 128.21875 C 494.628906 126.851562 493.960938 125.089844 492.835938 123.777344 C 488.160156 118.3125 481.398438 122.914062 477.84375 127.183594 C 474.851562 130.792969 471.363281 134.207031 468.6875 138.035156 C 466.300781 141.460938 464.953125 146.527344 464.859375 150.914062 C 473.703125 149.003906 481.503906 146.292969 489.230469 141.273438 C 493.164062 138.726562 497.132812 136.238281 501.125 133.800781 Z M 500.003906 128.660156 C 500.9375 128.285156 500.910156 126.703125 500.207031 126.042969 C 499.632812 125.496094 498.359375 125.773438 497.613281 126.28125 C 498.015625 126.871094 498.453125 127.441406 498.960938 127.941406 C 499.242188 128.234375 499.550781 128.496094 499.859375 128.753906 C 499.898438 128.722656 499.941406 128.683594 500.003906 128.660156 Z M 500.671875 118.328125 C 500.53125 118.285156 500.394531 118.253906 500.25 118.238281 C 499.257812 118.117188 497.4375 118.226562 496.933594 119.191406 C 496.886719 119.285156 496.832031 119.371094 496.773438 119.4375 C 496.824219 119.523438 496.917969 119.597656 497.082031 119.6875 C 497.46875 119.882812 498.117188 120.035156 498.546875 120.0625 C 499.652344 120.121094 500.378906 119.292969 500.671875 118.328125 Z M 501.660156 123.191406 C 501.675781 122.734375 501.359375 122.34375 500.902344 122.269531 C 500.320312 122.171875 499.851562 122.636719 499.769531 123.171875 C 499.738281 123.410156 499.722656 123.734375 499.789062 123.964844 C 499.8125 124.03125 499.84375 124.074219 499.875 124.109375 C 500.003906 124.03125 500.148438 123.988281 500.328125 124.015625 C 500.773438 124.09375 501.28125 123.972656 501.53125 123.597656 C 501.554688 123.453125 501.601562 123.304688 501.660156 123.191406 Z M 502.414062 125.71875 C 502.171875 125.515625 501.976562 125.277344 501.820312 125.015625 C 501.632812 125.105469 501.425781 125.171875 501.210938 125.21875 C 501.226562 125.234375 501.246094 125.25 501.261719 125.277344 C 501.476562 125.53125 501.632812 125.855469 501.753906 126.199219 C 501.964844 126.019531 502.191406 125.863281 502.414062 125.71875 Z M 503.414062 121 C 503.328125 120.859375 503.269531 120.714844 503.226562 120.5625 C 503.191406 120.527344 503.15625 120.496094 503.125 120.445312 C 502.761719 119.957031 502.324219 119.410156 501.8125 118.988281 C 501.601562 119.566406 501.246094 120.078125 500.800781 120.476562 C 500.886719 120.519531 500.960938 120.554688 501.050781 120.613281 C 501.453125 120.902344 502.078125 121.382812 502.589844 121.390625 C 502.953125 121.390625 503.183594 121.210938 503.414062 121 Z M 503.382812 132.4375 C 503.859375 132.144531 504.347656 131.855469 504.835938 131.566406 C 504.621094 130.757812 504.492188 130.042969 503.449219 129.90625 C 502.839844 129.816406 502.25 130.003906 501.683594 130.269531 C 502.378906 130.890625 502.988281 131.574219 503.382812 132.4375 Z M 505.085938 124.550781 C 505.652344 124.125 505.367188 123.144531 504.957031 122.378906 C 504.828125 122.230469 504.703125 122.074219 504.582031 121.910156 C 504.347656 122.253906 504.046875 122.53125 503.671875 122.832031 C 502.808594 123.238281 502.746094 123.9375 503.480469 124.925781 C 504.015625 124.796875 504.554688 124.679688 505.085938 124.550781 Z M 504.863281 127.679688 C 505.246094 127.296875 505.539062 126.757812 505.28125 126.214844 C 504.914062 126.402344 504.453125 126.484375 503.886719 126.410156 C 503.84375 126.402344 503.808594 126.394531 503.773438 126.382812 C 503.738281 126.410156 503.714844 126.441406 503.679688 126.460938 C 503.21875 126.710938 502.695312 126.996094 502.355469 127.398438 C 502.054688 127.753906 502.007812 127.882812 502.46875 128.039062 C 502.628906 128.089844 502.789062 128.113281 502.953125 128.136719 C 503.691406 128.257812 504.296875 128.234375 504.863281 127.679688 Z M 509.296875 128.542969 C 509.046875 127.96875 507.957031 128.039062 507.476562 128.054688 C 506.84375 128.082031 505.199219 128.773438 505.941406 129.726562 C 506.445312 130.355469 508.722656 129.335938 509.296875 128.542969 Z M 505.933594 121.570312 C 506.816406 122.597656 507.902344 123.109375 509.304688 122.3125 C 508.660156 120.972656 507.046875 120.503906 505.652344 121.074219 C 505.757812 121.226562 505.847656 121.390625 505.933594 121.570312 Z M 509.792969 124.398438 C 509.800781 124.261719 509.792969 124.117188 509.78125 123.964844 C 509.414062 124.039062 509.003906 124.007812 508.574219 124.039062 C 507.714844 124.109375 507.296875 124.3125 507.03125 125.15625 C 506.902344 125.539062 506.746094 126.035156 506.800781 126.46875 C 507.417969 126.628906 508.453125 126.199219 508.890625 125.941406 C 509.078125 125.839844 509.214844 125.71875 509.335938 125.601562 C 509.507812 125.203125 509.6875 124.8125 509.792969 124.398438 Z M 510.800781 128.039062 C 511.667969 127.535156 512.535156 127.03125 513.394531 126.539062 C 513.273438 126.207031 512.835938 125.667969 512.636719 125.429688 C 512.351562 125.089844 511.984375 124.699219 511.503906 124.835938 C 511.34375 124.875 511.183594 124.894531 511.039062 124.875 C 510.957031 125.4375 510.738281 125.929688 510.390625 126.351562 C 510.304688 126.582031 510.261719 126.808594 510.304688 127.03125 C 510.390625 127.449219 510.65625 127.730469 510.800781 128.039062 Z M 515.386719 130.605469 C 515.097656 130.003906 514.769531 129.441406 514.417969 128.910156 C 505.894531 133.816406 497.558594 139 489.265625 144.300781 C 481.554688 149.234375 473.589844 151.707031 464.738281 153.558594 C 464.019531 158.449219 470.722656 161.347656 474.242188 162.992188 C 478.5625 165.011719 482.929688 166.800781 487.523438 168.070312 C 487.914062 167.867188 488.300781 167.671875 488.683594 167.46875 C 485.003906 165.90625 481.328125 164.355469 477.65625 162.789062 C 475.125 161.707031 472.375 160.714844 470.375 158.75 C 466.691406 155.109375 468.875 153.460938 472.863281 152.371094 C 488.496094 148.117188 501.8125 139.058594 515.386719 130.605469 Z M 516.636719 134.039062 C 516.433594 133.269531 516.191406 132.511719 515.90625 131.789062 C 505.539062 138.265625 495.273438 145.304688 483.925781 149.957031 C 481.125 151.109375 478.273438 152.125 475.363281 152.996094 C 474.304688 153.308594 471.710938 153.480469 471.03125 154.171875 C 468.875 156.351562 471.785156 158.40625 473.503906 159.472656 C 478.507812 162.554688 484.628906 164.4375 490.105469 166.707031 C 493.636719 164.796875 497.121094 162.777344 500.613281 160.878906 C 502.0625 160.085938 503.390625 159.132812 504.664062 158.125 C 501.964844 158.839844 499.148438 159.027344 496.359375 158.882812 C 492.8125 158.6875 489.191406 158.074219 485.75 157.203125 C 484.527344 156.898438 482.574219 156.5 482.632812 154.835938 C 482.761719 150.957031 494.328125 148.546875 496.902344 147.597656 C 504.589844 144.761719 512.140625 141.085938 516.636719 134.039062 Z M 514.09375 151.066406 C 516.335938 148.222656 517.402344 144.171875 517.410156 140.082031 C 513.289062 146.445312 505.003906 148.867188 498.074219 151.117188 C 497 151.464844 489.394531 153.003906 489.378906 154.308594 C 489.378906 154.851562 496.722656 155.21875 497.6875 155.21875 C 502.960938 155.21875 508.023438 154.015625 512.796875 151.902344 C 512.875 151.851562 512.960938 151.800781 513.039062 151.757812 C 513.289062 151.5625 513.535156 151.367188 513.792969 151.179688 C 513.898438 151.101562 513.996094 151.074219 514.09375 151.066406 Z M 517.289062 137.679688 C 517.226562 137.035156 517.136719 136.398438 517.023438 135.769531 C 511.367188 143.738281 501.933594 147.164062 492.910156 150.375 C 491.082031 151.035156 483.238281 152.816406 485.351562 155.816406 C 485.773438 156.410156 488.898438 156.574219 489.796875 156.734375 C 491.972656 157.144531 494.148438 157.484375 496.359375 157.605469 C 499.769531 157.78125 503.164062 157.460938 506.363281 156.207031 C 506.914062 155.996094 507.417969 155.738281 507.914062 155.464844 C 508.1875 155.238281 508.472656 155.003906 508.746094 154.773438 C 505.894531 155.660156 502.953125 156.242188 499.917969 156.417969 C 497.160156 156.589844 489.660156 157.128906 487.613281 154.601562 C 487.425781 154.359375 487.378906 154.113281 487.515625 153.828125 C 488.277344 152.207031 489.855469 152.191406 491.527344 151.742188 C 494.648438 150.878906 497.738281 149.917969 500.800781 148.851562 C 507.183594 146.609375 514.222656 144.1875 517.289062 137.679688 Z M 517.402344 156.90625 C 517.492188 157.417969 517.453125 157.707031 517.359375 157.730469 C 517.265625 157.757812 517.109375 157.511719 516.871094 157.09375 C 516.628906 156.695312 516.289062 156.085938 515.679688 155.6875 C 515.378906 155.492188 515 155.34375 514.640625 155.351562 C 514.289062 155.351562 513.929688 155.515625 513.515625 155.816406 C 512.667969 156.453125 511.820312 157.332031 511.152344 158.382812 C 510.808594 158.902344 510.535156 159.457031 510.316406 159.980469 C 510.105469 160.492188 510.097656 160.894531 510.234375 161.039062 C 510.355469 161.234375 510.835938 161.390625 511.265625 161.429688 C 511.710938 161.472656 512.132812 161.4375 512.507812 161.355469 C 514.066406 160.988281 514.734375 160.042969 514.917969 160.175781 C 514.992188 160.230469 514.941406 160.527344 514.632812 160.972656 C 514.332031 161.40625 513.742188 161.960938 512.8125 162.328125 C 512.351562 162.503906 511.8125 162.625 511.214844 162.617188 C 510.914062 162.617188 510.605469 162.589844 510.261719 162.503906 C 509.929688 162.410156 509.542969 162.25 509.226562 161.902344 C 508.898438 161.550781 508.753906 161.039062 508.761719 160.621094 C 508.769531 160.207031 508.867188 159.832031 508.996094 159.488281 C 509.234375 158.839844 509.542969 158.21875 509.929688 157.605469 C 510.203125 157.195312 510.492188 156.820312 510.800781 156.460938 C 509.175781 157.792969 507.621094 159.214844 505.917969 160.511719 C 502.960938 162.75 499.585938 164.144531 496.328125 165.878906 C 489.71875 169.390625 483.609375 172.992188 476.523438 175.589844 C 474.214844 176.433594 469.839844 178.867188 467.292969 178.070312 C 465.644531 177.546875 464.933594 175.761719 464.179688 174.285156 C 460.960938 167.949219 462.039062 159.652344 461.824219 152.753906 C 461.8125 152.425781 461.910156 152.167969 462.0625 151.96875 C 462.113281 151.851562 462.191406 151.742188 462.289062 151.644531 C 462.1875 145.988281 464.007812 139.878906 467.4375 135.445312 C 469.3125 133.015625 471.535156 130.875 473.503906 128.523438 C 475.578125 126.058594 477.382812 123.304688 480.054688 121.414062 C 482.394531 119.753906 486.023438 118.355469 489.25 118.613281 C 489.652344 117.460938 490.457031 116.523438 491.710938 116.09375 C 493.175781 115.605469 494.457031 116.035156 495.609375 116.84375 C 496.832031 115.839844 498.710938 115.605469 500.25 115.679688 C 502.25 115.773438 503.730469 117.101562 504.914062 118.59375 C 507.894531 117.453125 511.058594 119.214844 511.929688 122.269531 C 512.902344 122.34375 513.800781 122.863281 514.453125 123.621094 C 515.144531 124.421875 515.851562 125.367188 515.96875 126.410156 C 516.089844 126.589844 516.175781 126.785156 516.207031 126.988281 C 521.414062 134.011719 521.300781 146.535156 515.671875 153.199219 C 515.445312 153.460938 515.199219 153.582031 514.941406 153.609375 C 514.5625 153.8125 514.195312 154.023438 513.835938 154.246094 C 514.125 154.171875 514.417969 154.128906 514.714844 154.160156 C 515.394531 154.238281 515.929688 154.554688 516.3125 154.894531 C 517.089844 155.621094 517.296875 156.410156 517.402344 156.90625 " fill-opacity="1" fill-rule="nonzero"/><path fill="#ff794a" d="M 505.910156 99.300781 C 506.105469 99.5625 506.128906 99.851562 506.074219 100.03125 C 506 100.210938 505.871094 100.253906 505.78125 100.226562 C 505.601562 100.148438 505.417969 100.03125 505.230469 100.058594 C 505.15625 100.074219 505.0625 100.082031 504.878906 100.105469 C 504.6875 100.125 504.410156 100.140625 504.21875 100.164062 C 504.023438 100.191406 503.894531 100.238281 503.808594 100.261719 C 503.746094 100.261719 503.644531 100.328125 503.578125 100.398438 C 503.414062 100.515625 503.375 100.738281 503.269531 100.90625 C 503.207031 100.976562 503.089844 101.019531 502.929688 100.933594 C 502.761719 100.847656 502.589844 100.601562 502.566406 100.292969 C 502.53125 99.988281 502.609375 99.601562 502.929688 99.261719 C 503.226562 98.949219 503.644531 98.796875 504.023438 98.746094 C 504.417969 98.691406 504.703125 98.726562 505.019531 98.785156 C 505.34375 98.855469 505.703125 99.015625 505.910156 99.300781 " fill-opacity="1" fill-rule="nonzero"/><path fill="#ff794a" d="M 503.636719 96.410156 C 503.851562 96.914062 503.773438 97.269531 503.59375 97.335938 C 503.21875 97.464844 502.574219 96.714844 501.578125 96.375 C 501.34375 96.277344 501.097656 96.230469 500.878906 96.1875 C 500.734375 96.164062 500.59375 96.136719 500.476562 96.117188 C 500.261719 96.101562 500.085938 96.277344 499.925781 96.375 C 499.84375 96.417969 499.703125 96.375 499.617188 96.171875 C 499.542969 95.976562 499.566406 95.640625 499.8125 95.34375 C 500.078125 95.035156 500.507812 94.882812 500.894531 94.859375 C 501.269531 94.828125 501.683594 94.875 502.078125 95.019531 C 502.882812 95.316406 503.421875 95.914062 503.636719 96.410156 " fill-opacity="1" fill-rule="nonzero"/><path fill="#ff794a" d="M 501.476562 98.796875 C 501.667969 99.226562 501.617188 99.664062 501.472656 99.894531 C 501.316406 100.125 501.15625 100.15625 501.074219 100.105469 C 500.921875 99.96875 500.953125 99.621094 500.605469 99.316406 C 500.425781 99.152344 500.242188 99.074219 499.898438 99.023438 C 499.585938 98.972656 499.128906 98.984375 498.605469 98.984375 C 498.101562 98.984375 497.6875 99 497.371094 99.082031 C 497.054688 99.152344 496.847656 99.28125 496.660156 99.457031 C 496.300781 99.78125 496.292969 100.164062 496.109375 100.261719 C 496.027344 100.304688 495.882812 100.246094 495.761719 100.003906 C 495.640625 99.78125 495.597656 99.367188 495.777344 98.941406 C 495.933594 98.527344 496.359375 98.0625 496.910156 97.839844 C 497.449219 97.601562 498.058594 97.542969 498.605469 97.550781 C 499.128906 97.550781 499.6875 97.558594 500.242188 97.738281 C 500.800781 97.898438 501.324219 98.351562 501.476562 98.796875 " fill-opacity="1" fill-rule="nonzero"/><path fill="#ff794a" d="M 501.179688 92.292969 C 501.472656 92.898438 501.246094 93.3125 501.058594 93.304688 C 500.863281 93.304688 500.671875 93.074219 500.371094 92.921875 C 500.054688 92.742188 499.695312 92.625 499.113281 92.617188 C 498.832031 92.617188 498.515625 92.632812 498.238281 92.640625 C 497.972656 92.660156 497.816406 92.675781 497.699219 92.691406 C 497.429688 92.734375 497.269531 92.921875 497.089844 92.992188 C 496.992188 93.015625 496.867188 92.953125 496.804688 92.75 C 496.746094 92.546875 496.78125 92.222656 497.015625 91.933594 C 497.25 91.625 497.640625 91.4375 497.988281 91.347656 C 498.332031 91.242188 498.703125 91.175781 499.140625 91.183594 C 499.574219 91.191406 500.019531 91.285156 500.394531 91.496094 C 500.773438 91.710938 501.03125 92 501.179688 92.292969 " fill-opacity="1" fill-rule="nonzero"/><path fill="#ff794a" d="M 498.375 95.414062 C 498.695312 95.992188 498.460938 96.410156 498.273438 96.390625 C 497.898438 96.332031 497.460938 95.761719 496.480469 95.929688 C 496.230469 95.964844 495.957031 96.023438 495.710938 96.082031 C 495.488281 96.125 495.292969 96.1875 495.152344 96.230469 C 495.007812 96.277344 494.902344 96.316406 494.8125 96.367188 C 494.707031 96.417969 494.621094 96.492188 494.519531 96.503906 C 494.425781 96.519531 494.3125 96.449219 494.253906 96.261719 C 494.191406 96.074219 494.253906 95.761719 494.441406 95.496094 C 494.621094 95.234375 494.894531 95.007812 495.21875 94.851562 C 495.527344 94.695312 495.875 94.558594 496.3125 94.507812 C 496.730469 94.445312 497.183594 94.5 497.578125 94.679688 C 497.957031 94.859375 498.230469 95.136719 498.375 95.414062 " fill-opacity="1" fill-rule="nonzero"/><path fill="#ff794a" d="M 464.332031 109.296875 C 464.859375 109.59375 464.925781 109.992188 464.789062 110.121094 C 464.640625 110.257812 464.363281 110.226562 464.050781 110.277344 C 463.75 110.316406 463.351562 110.429688 463.058594 110.660156 C 462.398438 111.136719 462.144531 112.140625 461.746094 112.167969 C 461.558594 112.175781 461.335938 111.90625 461.300781 111.382812 C 461.261719 110.886719 461.457031 110.078125 462.175781 109.519531 C 462.941406 108.945312 463.847656 109.015625 464.332031 109.296875 " fill-opacity="1" fill-rule="nonzero"/><path fill="#ff794a" d="M 462.632812 87.867188 C 463.070312 88.265625 463.207031 88.617188 463.09375 88.773438 C 462.972656 88.941406 462.605469 88.871094 462.128906 88.753906 C 461.644531 88.644531 461.105469 88.53125 460.632812 88.695312 C 460.394531 88.78125 460.242188 88.890625 460.136719 89.011719 C 460.015625 89.140625 459.941406 89.34375 459.886719 89.5625 C 459.785156 90.003906 459.707031 90.394531 459.503906 90.425781 C 459.3125 90.460938 459.042969 90.214844 458.867188 89.613281 C 458.789062 89.316406 458.742188 88.871094 458.953125 88.390625 C 459.167969 87.894531 459.65625 87.492188 460.179688 87.332031 C 460.703125 87.152344 461.269531 87.183594 461.667969 87.332031 C 462.089844 87.46875 462.40625 87.671875 462.632812 87.867188 " fill-opacity="1" fill-rule="nonzero"/><path fill="#ff794a" d="M 460.839844 107.820312 C 461.398438 107.949219 461.699219 108.1875 461.667969 108.382812 C 461.644531 108.582031 461.308594 108.707031 460.832031 108.835938 C 460.371094 108.964844 459.683594 109.082031 459.148438 109.3125 C 458.613281 109.542969 458.394531 109.8125 458.265625 110.164062 C 458.128906 110.472656 458.199219 110.773438 458.078125 110.921875 C 458.011719 110.992188 457.875 111.015625 457.691406 110.90625 C 457.519531 110.804688 457.324219 110.554688 457.246094 110.195312 C 457.171875 109.851562 457.195312 109.40625 457.445312 108.964844 C 457.691406 108.507812 458.113281 108.195312 458.566406 107.992188 C 459.503906 107.617188 460.28125 107.703125 460.839844 107.820312 " fill-opacity="1" fill-rule="nonzero"/><path fill="#ff794a" d="M 461.40625 84.878906 C 461.84375 85.449219 461.714844 85.941406 461.523438 85.960938 C 461.328125 86.007812 461.09375 85.78125 460.726562 85.644531 C 460.347656 85.480469 459.886719 85.40625 459.222656 85.488281 C 458.894531 85.523438 458.542969 85.59375 458.214844 85.644531 C 457.90625 85.6875 457.753906 85.726562 457.667969 85.742188 C 457.445312 85.804688 457.367188 86.042969 457.292969 86.222656 C 457.246094 86.296875 457.074219 86.335938 456.898438 86.148438 C 456.734375 85.960938 456.621094 85.585938 456.832031 85.164062 C 457.050781 84.738281 457.496094 84.503906 457.859375 84.375 C 458.199219 84.234375 458.582031 84.121094 459.058594 84.058594 C 459.519531 84.007812 460 84.039062 460.4375 84.195312 C 460.863281 84.347656 461.199219 84.609375 461.40625 84.878906 " fill-opacity="1" fill-rule="nonzero"/><path fill="#ff794a" d="M 460.597656 112.414062 C 461.140625 112.636719 461.386719 112.898438 461.34375 113.085938 C 461.300781 113.285156 460.921875 113.363281 460.453125 113.421875 C 460.222656 113.453125 459.964844 113.496094 459.75 113.574219 C 459.546875 113.648438 459.359375 113.769531 459.148438 113.964844 C 458.75 114.339844 458.464844 114.878906 458.214844 115.320312 C 457.964844 115.757812 457.738281 116.046875 457.539062 115.996094 C 457.34375 115.953125 457.222656 115.621094 457.230469 115.058594 C 457.238281 114.519531 457.414062 113.632812 458.15625 112.917969 C 458.527344 112.566406 459.035156 112.320312 459.496094 112.28125 C 459.949219 112.226562 460.324219 112.3125 460.597656 112.414062 " fill-opacity="1" fill-rule="nonzero"/><path fill="#ff794a" d="M 457.015625 89.207031 C 457.648438 89.640625 457.738281 90.183594 457.566406 90.273438 C 457.390625 90.371094 457.085938 90.207031 456.597656 90.132812 C 456.347656 90.09375 456.039062 90.066406 455.679688 90.050781 C 455.316406 90.035156 454.925781 90.035156 454.625 90.09375 C 454.320312 90.160156 454.179688 90.253906 454.050781 90.417969 C 453.921875 90.589844 453.84375 90.859375 453.792969 91.121094 C 453.707031 91.660156 453.648438 92.078125 453.445312 92.121094 C 453.261719 92.15625 452.960938 91.863281 452.773438 91.191406 C 452.699219 90.851562 452.628906 90.378906 452.863281 89.816406 C 453.074219 89.253906 453.726562 88.78125 454.328125 88.683594 C 454.933594 88.566406 455.441406 88.652344 455.867188 88.738281 C 456.304688 88.839844 456.710938 89 457.015625 89.207031 " fill-opacity="1" fill-rule="nonzero"/><path fill="#ff794a" d="M 433.746094 107.457031 C 434.238281 107.609375 434.410156 107.90625 434.332031 108.078125 C 434.257812 108.265625 434 108.351562 433.722656 108.476562 C 433.449219 108.589844 433.164062 108.777344 433.03125 108.964844 C 432.917969 109.101562 432.839844 109.414062 432.847656 109.648438 C 432.832031 109.875 432.933594 110.105469 432.871094 110.300781 C 432.832031 110.480469 432.417969 110.601562 431.984375 110.1875 C 431.589844 109.8125 431.292969 108.9375 431.867188 108.109375 C 432.441406 107.367188 433.300781 107.308594 433.746094 107.457031 " fill-opacity="1" fill-rule="nonzero"/><path fill="#ff794a" d="M 432.796875 104.320312 C 433.269531 104.472656 433.484375 104.695312 433.464844 104.882812 C 433.464844 105.304688 432.128906 105.339844 431.804688 105.820312 C 431.382812 105.859375 432.128906 107.351562 431.667969 107.472656 C 431.480469 107.539062 431.230469 107.449219 430.878906 107.148438 C 430.714844 106.984375 430.484375 106.753906 430.367188 106.324219 C 430.21875 105.886719 430.367188 105.246094 430.714844 104.882812 C 431.050781 104.496094 431.480469 104.308594 431.875 104.25 C 432.25 104.191406 432.554688 104.238281 432.796875 104.320312 " fill-opacity="1" fill-rule="nonzero"/><path fill="#ff794a" d="M 430.140625 107.804688 C 430.820312 108.019531 431.105469 108.367188 431.023438 108.546875 C 430.945312 108.734375 430.554688 108.742188 430.027344 108.808594 C 429.515625 108.882812 428.863281 109.046875 428.410156 109.484375 C 427.929688 109.925781 427.761719 110.496094 427.769531 110.90625 C 427.769531 111.324219 427.964844 111.597656 427.898438 111.785156 C 427.863281 111.871094 427.726562 111.929688 427.503906 111.871094 C 427.28125 111.800781 427 111.597656 426.808594 111.238281 C 426.609375 110.886719 426.515625 110.386719 426.621094 109.875 C 426.714844 109.363281 426.988281 108.84375 427.425781 108.433594 C 428.335938 107.589844 429.5 107.597656 430.140625 107.804688 " fill-opacity="1" fill-rule="nonzero"/><path fill="#ff794a" d="M 426.859375 146.332031 C 427.527344 146.40625 427.769531 146.804688 427.664062 146.960938 C 427.574219 147.136719 427.265625 147.171875 426.960938 147.34375 C 426.808594 147.421875 426.644531 147.53125 426.496094 147.667969 C 426.351562 147.804688 426.234375 147.976562 426.121094 148.203125 C 425.898438 148.636719 425.816406 149.234375 425.753906 149.59375 C 425.695312 149.941406 425.734375 150.171875 425.644531 150.351562 C 425.589844 150.429688 425.460938 150.472656 425.273438 150.394531 C 425.09375 150.316406 424.886719 150.105469 424.761719 149.8125 C 424.519531 149.25 424.40625 148.457031 424.820312 147.570312 C 425.023438 147.148438 425.378906 146.761719 425.761719 146.566406 C 426.148438 146.355469 426.542969 146.292969 426.859375 146.332031 " fill-opacity="1" fill-rule="nonzero"/><path fill="#ff794a" d="M 422.625 148.75 C 423.328125 148.71875 423.671875 149.039062 423.613281 149.21875 C 423.570312 149.414062 423.222656 149.5 422.882812 149.730469 C 422.511719 149.957031 422.203125 150.300781 422.164062 150.777344 C 422.128906 151.277344 422.308594 151.628906 422.625 151.878906 C 422.933594 152.132812 423.257812 152.226562 423.3125 152.425781 C 423.371094 152.589844 423.011719 152.941406 422.285156 152.832031 C 421.929688 152.777344 421.492188 152.582031 421.167969 152.175781 C 420.84375 151.765625 420.671875 151.203125 420.722656 150.632812 C 420.777344 150.0625 421.085938 149.523438 421.46875 149.207031 C 421.855469 148.890625 422.285156 148.765625 422.625 148.75 " fill-opacity="1" fill-rule="nonzero"/><path fill="#ff794a" d="M 421.699219 145.144531 C 422.300781 145.265625 422.445312 145.679688 422.316406 145.808594 C 422.195312 145.972656 421.9375 146.003906 421.742188 146.160156 C 421.546875 146.277344 421.3125 146.542969 421.296875 146.695312 C 421.230469 146.890625 421.28125 147.234375 421.402344 147.496094 C 421.492188 147.765625 421.652344 147.992188 421.589844 148.1875 C 421.546875 148.375 421.191406 148.5 420.707031 148.246094 C 420.476562 148.125 420.226562 147.90625 420.046875 147.578125 C 419.863281 147.257812 419.773438 146.796875 419.902344 146.332031 C 420.03125 145.824219 420.382812 145.484375 420.714844 145.304688 C 421.066406 145.125 421.417969 145.085938 421.699219 145.144531 " fill-opacity="1" fill-rule="nonzero"/><g fill="#cb4e35" fill-opacity="1"><g transform="translate(365.128005, 227.711157)"><g><path d="M 12.6875 0 L 12.546875 -1.703125 L 14.328125 -2.046875 C 14.179688 -2.296875 14.035156 -2.53125 13.890625 -2.75 C 13.742188 -2.96875 13.507812 -3.28125 13.1875 -3.6875 L 8.953125 -8.8125 L 7.625 -8.8125 L 7.625 -10.453125 L 9.0625 -10.734375 L 16.09375 -17.984375 L 13.90625 -18.359375 L 14.015625 -20.0625 L 21.765625 -20.0625 L 21.875 -18.28125 L 19.625 -17.9375 L 12.09375 -11.21875 L 12 -12.71875 L 18.59375 -4.8125 C 19.144531 -4.195312 19.578125 -3.703125 19.890625 -3.328125 C 20.210938 -2.953125 20.460938 -2.664062 20.640625 -2.46875 C 20.828125 -2.28125 20.976562 -2.128906 21.09375 -2.015625 L 22.828125 -1.75 L 22.828125 0 Z M 1.40625 0 L 1.296875 -1.703125 L 3.484375 -2.25 C 3.535156 -2.414062 3.570312 -2.972656 3.59375 -3.921875 C 3.613281 -4.878906 3.625 -6.078125 3.625 -7.515625 L 3.625 -12.515625 C 3.625 -13.472656 3.613281 -14.332031 3.59375 -15.09375 C 3.570312 -15.851562 3.539062 -16.472656 3.5 -16.953125 C 3.46875 -17.429688 3.429688 -17.71875 3.390625 -17.8125 L 1.234375 -18.359375 L 1.328125 -20.0625 L 10.53125 -20.0625 L 10.625 -18.359375 L 8.4375 -17.8125 C 8.394531 -17.695312 8.351562 -17.394531 8.3125 -16.90625 C 8.28125 -16.414062 8.257812 -15.789062 8.25 -15.03125 C 8.238281 -14.28125 8.234375 -13.441406 8.234375 -12.515625 L 8.234375 -7.515625 C 8.234375 -6.078125 8.25 -4.878906 8.28125 -3.921875 C 8.320312 -2.972656 8.351562 -2.414062 8.375 -2.25 L 10.15625 -1.703125 L 10.046875 0 Z M 1.40625 0 "/></g></g></g><g fill="#cb4e35" fill-opacity="1"><g transform="translate(404.940638, 227.711157)"><g><path d="M 6.421875 0.28125 C 5.378906 0.28125 4.472656 0.0507812 3.703125 -0.40625 C 2.941406 -0.863281 2.363281 -1.410156 1.96875 -2.046875 C 1.570312 -2.691406 1.375 -3.296875 1.375 -3.859375 C 1.375 -4.703125 1.628906 -5.394531 2.140625 -5.9375 C 2.648438 -6.488281 3.441406 -6.925781 4.515625 -7.25 L 9.875 -8.8125 L 9.875 -10.046875 C 9.875 -10.523438 9.71875 -10.972656 9.40625 -11.390625 C 9.101562 -11.816406 8.703125 -12.164062 8.203125 -12.4375 C 7.703125 -12.71875 7.164062 -12.859375 6.59375 -12.859375 C 6.226562 -12.859375 5.972656 -12.769531 5.828125 -12.59375 C 5.679688 -12.425781 5.582031 -12.09375 5.53125 -11.59375 L 5.359375 -9.5 C 4.222656 -9.269531 3.296875 -9.304688 2.578125 -9.609375 C 1.859375 -9.921875 1.5 -10.429688 1.5 -11.140625 C 1.5 -11.578125 1.726562 -12.019531 2.1875 -12.46875 C 2.644531 -12.925781 3.207031 -13.351562 3.875 -13.75 C 4.550781 -14.15625 5.238281 -14.5 5.9375 -14.78125 C 6.644531 -15.0625 7.273438 -15.226562 7.828125 -15.28125 C 9.828125 -15.28125 11.425781 -14.816406 12.625 -13.890625 C 13.820312 -12.972656 14.421875 -11.738281 14.421875 -10.1875 L 14.328125 -5.4375 C 14.328125 -4.800781 14.34375 -4.304688 14.375 -3.953125 C 14.40625 -3.597656 14.476562 -3.304688 14.59375 -3.078125 L 16.8125 -2.671875 L 16.8125 -1.234375 L 14.59375 -0.234375 C 14.207031 -0.078125 13.835938 0.046875 13.484375 0.140625 C 13.128906 0.234375 12.789062 0.28125 12.46875 0.28125 C 11.582031 0.28125 10.957031 -0.175781 10.59375 -1.09375 L 10.015625 -2.671875 L 10.734375 -2.5 C 10.023438 -1.632812 9.300781 -0.953125 8.5625 -0.453125 C 7.820312 0.0351562 7.109375 0.28125 6.421875 0.28125 Z M 8.171875 -2.796875 C 8.484375 -2.796875 8.785156 -2.859375 9.078125 -2.984375 C 9.378906 -3.109375 9.65625 -3.300781 9.90625 -3.5625 L 9.90625 -6.90625 L 7.59375 -6.5 C 7.039062 -6.40625 6.640625 -6.21875 6.390625 -5.9375 C 6.140625 -5.664062 6.015625 -5.316406 6.015625 -4.890625 C 6.015625 -4.335938 6.222656 -3.847656 6.640625 -3.421875 C 7.066406 -3.003906 7.578125 -2.796875 8.171875 -2.796875 Z M 8.171875 -2.796875 "/></g></g></g><g fill="#cb4e35" fill-opacity="1"><g transform="translate(439.456603, 227.711157)"><g><path d="M 0.65625 0 L 0.546875 -1.578125 L 2.671875 -2.15625 C 2.691406 -2.25 2.710938 -2.453125 2.734375 -2.765625 C 2.753906 -3.085938 2.773438 -3.492188 2.796875 -3.984375 C 2.828125 -4.472656 2.84375 -5.003906 2.84375 -5.578125 L 2.875 -8.171875 C 2.875 -8.878906 2.847656 -9.488281 2.796875 -10 C 2.753906 -10.507812 2.675781 -11.0625 2.5625 -11.65625 L 0.375 -12.140625 L 0.375 -13.671875 L 6.390625 -15.203125 L 7.34375 -14.625 L 7.140625 -12.609375 L 7.25 -12.578125 C 7.957031 -13.492188 8.738281 -14.171875 9.59375 -14.609375 C 10.445312 -15.054688 11.335938 -15.28125 12.265625 -15.28125 C 13.242188 -15.28125 14.117188 -15.039062 14.890625 -14.5625 C 15.671875 -14.082031 16.28125 -13.378906 16.71875 -12.453125 C 17.164062 -11.535156 17.390625 -10.425781 17.390625 -9.125 L 17.390625 -5.609375 C 17.390625 -4.828125 17.398438 -4.097656 17.421875 -3.421875 C 17.453125 -2.753906 17.5 -2.332031 17.5625 -2.15625 L 19.6875 -1.578125 L 19.578125 0 L 11 0 L 10.90625 -1.578125 L 12.859375 -2.15625 C 12.898438 -2.382812 12.929688 -2.679688 12.953125 -3.046875 C 12.972656 -3.410156 12.988281 -3.816406 13 -4.265625 C 13.007812 -4.722656 13.015625 -5.160156 13.015625 -5.578125 L 13.015625 -8.4375 C 13.015625 -9.300781 12.882812 -10 12.625 -10.53125 C 12.363281 -11.070312 12.019531 -11.46875 11.59375 -11.71875 C 11.175781 -11.96875 10.707031 -12.09375 10.1875 -12.09375 C 9.613281 -12.09375 9.078125 -11.96875 8.578125 -11.71875 C 8.078125 -11.46875 7.632812 -11.101562 7.25 -10.625 L 7.25 -5.609375 C 7.25 -4.828125 7.265625 -4.097656 7.296875 -3.421875 C 7.328125 -2.753906 7.378906 -2.332031 7.453125 -2.15625 L 9.5 -1.578125 L 9.40625 0 Z M 0.65625 0 "/></g></g></g><g fill="#cb4e35" fill-opacity="1"><g transform="translate(476.979711, 227.711157)"><g><path d="M 6.671875 0.28125 C 5.710938 0.28125 4.765625 0.171875 3.828125 -0.046875 C 2.890625 -0.265625 2.09375 -0.546875 1.4375 -0.890625 L 1.265625 -4.921875 L 3.484375 -4.921875 L 4.203125 -2.46875 C 5.066406 -1.9375 5.96875 -1.671875 6.90625 -1.671875 C 7.613281 -1.671875 8.148438 -1.8125 8.515625 -2.09375 C 8.878906 -2.382812 9.0625 -2.769531 9.0625 -3.25 C 9.0625 -3.75 8.859375 -4.175781 8.453125 -4.53125 C 8.054688 -4.882812 7.242188 -5.300781 6.015625 -5.78125 C 4.328125 -6.394531 3.148438 -7.066406 2.484375 -7.796875 C 1.828125 -8.523438 1.5 -9.4375 1.5 -10.53125 C 1.5 -11.457031 1.785156 -12.28125 2.359375 -13 C 2.929688 -13.71875 3.726562 -14.273438 4.75 -14.671875 C 5.78125 -15.078125 6.96875 -15.28125 8.3125 -15.28125 C 9.039062 -15.28125 9.78125 -15.210938 10.53125 -15.078125 C 11.28125 -14.941406 11.90625 -14.757812 12.40625 -14.53125 L 12.78125 -10.5625 L 10.59375 -10.5625 L 9.84375 -12.984375 C 9.613281 -13.117188 9.332031 -13.226562 9 -13.3125 C 8.675781 -13.394531 8.363281 -13.4375 8.0625 -13.4375 C 7.382812 -13.4375 6.835938 -13.285156 6.421875 -12.984375 C 6.015625 -12.691406 5.8125 -12.296875 5.8125 -11.796875 C 5.8125 -11.265625 6.0625 -10.8125 6.5625 -10.4375 C 7.0625 -10.0625 7.972656 -9.601562 9.296875 -9.0625 C 10.796875 -8.445312 11.863281 -7.789062 12.5 -7.09375 C 13.144531 -6.394531 13.46875 -5.535156 13.46875 -4.515625 C 13.46875 -3.078125 12.832031 -1.914062 11.5625 -1.03125 C 10.300781 -0.15625 8.671875 0.28125 6.671875 0.28125 Z M 6.671875 0.28125 "/></g></g></g><g fill="#cb4e35" fill-opacity="1"><g transform="translate(508.693564, 227.711157)"><g><path d="M 0.65625 0 L 0.546875 -1.578125 L 2.671875 -2.15625 C 2.691406 -2.40625 2.71875 -2.84375 2.75 -3.46875 C 2.78125 -4.09375 2.804688 -4.816406 2.828125 -5.640625 C 2.859375 -6.460938 2.875 -7.257812 2.875 -8.03125 L 2.875 -12.34375 C 2.875 -13.113281 2.867188 -13.890625 2.859375 -14.671875 C 2.847656 -15.460938 2.832031 -16.21875 2.8125 -16.9375 C 2.800781 -17.65625 2.785156 -18.3125 2.765625 -18.90625 C 2.742188 -19.5 2.710938 -19.976562 2.671875 -20.34375 L 0.140625 -20.671875 L 0.0625 -22.15625 L 6.53125 -23.828125 L 7.484375 -23.25 C 7.460938 -22.539062 7.425781 -21.851562 7.375 -21.1875 C 7.332031 -20.53125 7.304688 -19.804688 7.296875 -19.015625 C 7.285156 -18.234375 7.269531 -17.332031 7.25 -16.3125 C 7.226562 -15.300781 7.203125 -14.078125 7.171875 -12.640625 L 7.28125 -12.609375 C 7.988281 -13.503906 8.765625 -14.171875 9.609375 -14.609375 C 10.453125 -15.054688 11.335938 -15.28125 12.265625 -15.28125 C 13.242188 -15.28125 14.117188 -15.039062 14.890625 -14.5625 C 15.671875 -14.082031 16.28125 -13.378906 16.71875 -12.453125 C 17.164062 -11.535156 17.390625 -10.425781 17.390625 -9.125 L 17.390625 -5.609375 C 17.390625 -4.828125 17.40625 -4.097656 17.4375 -3.421875 C 17.476562 -2.753906 17.519531 -2.332031 17.5625 -2.15625 L 19.6875 -1.578125 L 19.578125 0 L 11.046875 0 L 10.9375 -1.578125 L 12.859375 -2.15625 C 12.898438 -2.382812 12.929688 -2.679688 12.953125 -3.046875 C 12.972656 -3.410156 12.988281 -3.816406 13 -4.265625 C 13.007812 -4.722656 13.015625 -5.160156 13.015625 -5.578125 L 13.015625 -8.4375 C 13.015625 -9.300781 12.882812 -10 12.625 -10.53125 C 12.363281 -11.070312 12.019531 -11.46875 11.59375 -11.71875 C 11.175781 -11.96875 10.707031 -12.09375 10.1875 -12.09375 C 9.613281 -12.09375 9.078125 -11.96875 8.578125 -11.71875 C 8.078125 -11.46875 7.632812 -11.101562 7.25 -10.625 L 7.25 -5.609375 C 7.25 -4.765625 7.265625 -4.019531 7.296875 -3.375 C 7.328125 -2.738281 7.378906 -2.332031 7.453125 -2.15625 L 9.5 -1.578125 L 9.40625 0 Z M 0.65625 0 "/></g></g></g><g fill="#cb4e35" fill-opacity="1"><g transform="translate(546.216667, 227.711157)"><g><path d="M 6.421875 0.28125 C 5.378906 0.28125 4.472656 0.0507812 3.703125 -0.40625 C 2.941406 -0.863281 2.363281 -1.410156 1.96875 -2.046875 C 1.570312 -2.691406 1.375 -3.296875 1.375 -3.859375 C 1.375 -4.703125 1.628906 -5.394531 2.140625 -5.9375 C 2.648438 -6.488281 3.441406 -6.925781 4.515625 -7.25 L 9.875 -8.8125 L 9.875 -10.046875 C 9.875 -10.523438 9.71875 -10.972656 9.40625 -11.390625 C 9.101562 -11.816406 8.703125 -12.164062 8.203125 -12.4375 C 7.703125 -12.71875 7.164062 -12.859375 6.59375 -12.859375 C 6.226562 -12.859375 5.972656 -12.769531 5.828125 -12.59375 C 5.679688 -12.425781 5.582031 -12.09375 5.53125 -11.59375 L 5.359375 -9.5 C 4.222656 -9.269531 3.296875 -9.304688 2.578125 -9.609375 C 1.859375 -9.921875 1.5 -10.429688 1.5 -11.140625 C 1.5 -11.578125 1.726562 -12.019531 2.1875 -12.46875 C 2.644531 -12.925781 3.207031 -13.351562 3.875 -13.75 C 4.550781 -14.15625 5.238281 -14.5 5.9375 -14.78125 C 6.644531 -15.0625 7.273438 -15.226562 7.828125 -15.28125 C 9.828125 -15.28125 11.425781 -14.816406 12.625 -13.890625 C 13.820312 -12.972656 14.421875 -11.738281 14.421875 -10.1875 L 14.328125 -5.4375 C 14.328125 -4.800781 14.34375 -4.304688 14.375 -3.953125 C 14.40625 -3.597656 14.476562 -3.304688 14.59375 -3.078125 L 16.8125 -2.671875 L 16.8125 -1.234375 L 14.59375 -0.234375 C 14.207031 -0.078125 13.835938 0.046875 13.484375 0.140625 C 13.128906 0.234375 12.789062 0.28125 12.46875 0.28125 C 11.582031 0.28125 10.957031 -0.175781 10.59375 -1.09375 L 10.015625 -2.671875 L 10.734375 -2.5 C 10.023438 -1.632812 9.300781 -0.953125 8.5625 -0.453125 C 7.820312 0.0351562 7.109375 0.28125 6.421875 0.28125 Z M 8.171875 -2.796875 C 8.484375 -2.796875 8.785156 -2.859375 9.078125 -2.984375 C 9.378906 -3.109375 9.65625 -3.300781 9.90625 -3.5625 L 9.90625 -6.90625 L 7.59375 -6.5 C 7.039062 -6.40625 6.640625 -6.21875 6.390625 -5.9375 C 6.140625 -5.664062 6.015625 -5.316406 6.015625 -4.890625 C 6.015625 -4.335938 6.222656 -3.847656 6.640625 -3.421875 C 7.066406 -3.003906 7.578125 -2.796875 8.171875 -2.796875 Z M 8.171875 -2.796875 "/></g></g></g><g fill="#cb4e35" fill-opacity="1"><g transform="translate(580.741269, 227.711157)"><g/></g></g></svg>